<?xml version="1.0" encoding="UTF-8" standalone="no"?>
<!DOCTYPE svg PUBLIC "-//W3C//DTD SVG 1.1//EN" "http://www.w3.org/Graphics/SVG/1.1/DTD/svg11.dtd">
<svg width="100%" height="100%" viewBox="0 0 64 64" version="1.1" xmlns="http://www.w3.org/2000/svg" xmlns:xlink="http://www.w3.org/1999/xlink" xml:space="preserve" xmlns:serif="http://www.serif.com/" style="fill-rule:evenodd;clip-rule:evenodd;stroke-linejoin:round;stroke-miterlimit:2;">
    <g transform="matrix(1,0,0,1,-645,-1.66978e-13)">
        <g id="Artboard2" transform="matrix(0.125,0,0,0.125,564.333,1.66978e-13)">
            <rect x="645.333" y="0" width="512" height="512" style="fill:none;"/>
            <g transform="matrix(8,0,0,8,-4549.25,-7.96628)">
                <path d="M677,14.156C677,11.869 675.143,10.012 672.856,10.012L664.569,10.012C662.282,10.012 660.425,11.869 660.425,14.156L660.425,55.118C660.425,57.405 662.282,59.261 664.569,59.261L672.856,59.261C675.143,59.261 677,57.405 677,55.118L677,14.156Z" style="fill:rgb(140,140,140);"/>
            </g>
            <g transform="matrix(8,0,0,8,-4347.48,-7.96628)">
                <path d="M677,14.156C677,11.869 675.143,10.012 672.856,10.012L664.569,10.012C662.282,10.012 660.425,11.869 660.425,14.156L660.425,55.118C660.425,57.405 662.282,59.261 664.569,59.261L672.856,59.261C675.143,59.261 677,57.405 677,55.118L677,14.156Z" style="fill:rgb(140,140,140);"/>
            </g>
        </g>
    </g>
</svg>
